<svg width="360" height="800" viewBox="0 0 360 800" fill="none" xmlns="http://www.w3.org/2000/svg">
<g id="01 Buscar">
<rect x="0.5" y="0.5" width="359" height="799" fill="white"/>
<rect x="0.5" y="0.5" width="359" height="799" stroke="#D0D0D0"/>
<rect id="relleno" width="360" height="28" fill="#F0F0F0"/>
<rect id="relleno_2" x="16" y="10" width="26" height="8" rx="4" fill="#C9C9C9"/>
<rect id="relleno_3" x="320" y="10" width="24" height="8" rx="4" fill="#C9C9C9"/>
<path id="Titulo" d="M21.2912 68V54.9091H26.3026C27.2486 54.9091 28.0348 55.0582 28.6612 55.3565C29.2919 55.6506 29.7628 56.0533 30.0739 56.5646C30.3892 57.076 30.5469 57.6555 30.5469 58.3033C30.5469 58.8359 30.4446 59.2919 30.2401 59.6712C30.0355 60.0462 29.7607 60.3509 29.4155 60.5852C29.0703 60.8196 28.6847 60.9879 28.2585 61.0902V61.218C28.723 61.2436 29.1683 61.3864 29.5945 61.6463C30.0249 61.902 30.3764 62.2642 30.6491 62.733C30.9219 63.2017 31.0582 63.7685 31.0582 64.4332C31.0582 65.1108 30.8942 65.7202 30.5661 66.2614C30.2379 66.7983 29.7436 67.2223 29.0831 67.5334C28.4226 67.8445 27.5916 68 26.5902 68H21.2912ZM23.6626 66.0185H26.2131C27.0739 66.0185 27.6939 65.8544 28.0732 65.5263C28.4567 65.1939 28.6484 64.7678 28.6484 64.2479C28.6484 63.8601 28.5526 63.5107 28.3608 63.1996C28.169 62.8842 27.8963 62.6371 27.5426 62.4581C27.1889 62.2749 26.767 62.1832 26.277 62.1832H23.6626V66.0185ZM23.6626 60.4766H26.0085C26.4176 60.4766 26.7862 60.402 27.1143 60.2528C27.4425 60.0994 27.7003 59.8842 27.8878 59.6072C28.0795 59.326 28.1754 58.9936 28.1754 58.6101C28.1754 58.103 27.9964 57.6854 27.6385 57.3572C27.2848 57.0291 26.7585 56.8651 26.0597 56.8651H23.6626V60.4766ZM39.2768 63.8707V58.1818H41.5907V68H39.3471V66.255H39.2449C39.0233 66.8047 38.6589 67.2543 38.1518 67.6037C37.649 67.9531 37.0289 68.1278 36.2917 68.1278C35.6483 68.1278 35.0794 67.9851 34.585 67.6996C34.095 67.4098 33.7115 66.9901 33.4345 66.4403C33.1575 65.8864 33.019 65.2173 33.019 64.4332V58.1818H35.3329V64.0753C35.3329 64.6974 35.5034 65.1918 35.8443 65.5582C36.1852 65.9247 36.6326 66.108 37.1866 66.108C37.5275 66.108 37.8578 66.0249 38.1774 65.8587C38.497 65.6925 38.7591 65.4453 38.9636 65.1172C39.1724 64.7848 39.2768 64.3693 39.2768 63.8707ZM51.7301 60.777L49.6207 61.0071C49.5611 60.794 49.4567 60.5938 49.3075 60.4062C49.1626 60.2188 48.9666 60.0675 48.7195 59.9524C48.4723 59.8374 48.1697 59.7798 47.8118 59.7798C47.3303 59.7798 46.9254 59.8842 46.5973 60.093C46.2734 60.3018 46.1136 60.5724 46.1179 60.9048C46.1136 61.1903 46.218 61.4226 46.4311 61.6016C46.6484 61.7805 47.0064 61.9276 47.505 62.0426L49.1797 62.4006C50.1087 62.6009 50.799 62.9183 51.2507 63.353C51.7067 63.7876 51.9368 64.3565 51.9411 65.0597C51.9368 65.6776 51.7557 66.223 51.3977 66.696C51.044 67.1648 50.5518 67.5312 49.9212 67.7955C49.2905 68.0597 48.5661 68.1918 47.7479 68.1918C46.5462 68.1918 45.5788 67.9403 44.8459 67.4375C44.1129 66.9304 43.6761 66.2251 43.5355 65.3217L45.7919 65.1044C45.8942 65.5476 46.1115 65.8821 46.4439 66.108C46.7763 66.3338 47.2088 66.4467 47.7415 66.4467C48.2912 66.4467 48.7322 66.3338 49.0646 66.108C49.4013 65.8821 49.5696 65.603 49.5696 65.2706C49.5696 64.9893 49.4609 64.7571 49.2436 64.5739C49.0305 64.3906 48.6982 64.25 48.2464 64.152L46.5717 63.8004C45.63 63.6044 44.9332 63.2741 44.4815 62.8097C44.0298 62.3409 43.8061 61.7486 43.8104 61.0327C43.8061 60.4276 43.9702 59.9034 44.3026 59.4602C44.6392 59.0128 45.1058 58.6676 45.7024 58.4247C46.3033 58.1776 46.9957 58.054 47.7798 58.054C48.9304 58.054 49.8359 58.299 50.4964 58.7891C51.1612 59.2791 51.5724 59.9418 51.7301 60.777ZM58.1317 68.1918C57.1516 68.1918 56.31 67.9766 55.6069 67.5462C54.908 67.1158 54.369 66.5213 53.9897 65.7628C53.6147 65 53.4272 64.1222 53.4272 63.1293C53.4272 62.1321 53.619 61.2521 54.0025 60.4893C54.386 59.7223 54.9272 59.1257 55.6261 58.6996C56.3292 58.2692 57.1602 58.054 58.119 58.054C58.9158 58.054 59.6211 58.201 60.2347 58.495C60.8526 58.7848 61.3448 59.196 61.7113 59.7287C62.0778 60.2571 62.2866 60.875 62.3377 61.5824H60.1261C60.0366 61.1094 59.8235 60.7152 59.4869 60.3999C59.1545 60.0803 58.7092 59.9205 58.1509 59.9205C57.6779 59.9205 57.2624 60.0483 56.9045 60.304C56.5465 60.5554 56.2674 60.9176 56.0671 61.3906C55.8711 61.8636 55.7731 62.4304 55.7731 63.0909C55.7731 63.7599 55.8711 64.3352 56.0671 64.8168C56.2631 65.294 56.538 65.6626 56.8917 65.9226C57.2496 66.1783 57.6694 66.3061 58.1509 66.3061C58.4918 66.3061 58.7965 66.2422 59.065 66.1143C59.3377 65.9822 59.5657 65.7926 59.7489 65.5455C59.9322 65.2983 60.0579 64.9979 60.1261 64.6442H62.3377C62.2823 65.3388 62.0778 65.9545 61.7241 66.4915C61.3704 67.0241 60.8888 67.4418 60.2795 67.7443C59.6701 68.0426 58.9542 68.1918 58.1317 68.1918ZM67.063 68.1982C66.4409 68.1982 65.8805 68.0874 65.3819 67.8658C64.8876 67.6399 64.4956 67.3075 64.2058 66.8686C63.9203 66.4297 63.7775 65.8885 63.7775 65.245C63.7775 64.6911 63.8798 64.233 64.0843 63.8707C64.2889 63.5085 64.568 63.2188 64.9217 63.0014C65.2754 62.7841 65.6738 62.62 66.117 62.5092C66.5645 62.3942 67.0268 62.3111 67.5041 62.2599C68.0794 62.2003 68.546 62.147 68.9039 62.1001C69.2619 62.049 69.5218 61.9723 69.6838 61.87C69.85 61.7635 69.9331 61.5994 69.9331 61.3778V61.3395C69.9331 60.858 69.7903 60.4851 69.5048 60.2209C69.2193 59.9567 68.8081 59.8246 68.2711 59.8246C67.7044 59.8246 67.2548 59.9482 66.9224 60.1953C66.5943 60.4425 66.3727 60.7344 66.2576 61.071L64.0971 60.7642C64.2676 60.1676 64.5488 59.669 64.9409 59.2685C65.3329 58.8636 65.8123 58.5611 66.3791 58.3608C66.9458 58.1562 67.5723 58.054 68.2583 58.054C68.7314 58.054 69.2022 58.1094 69.671 58.2202C70.1397 58.331 70.568 58.5142 70.9558 58.7699C71.3436 59.0213 71.6547 59.3643 71.889 59.799C72.1277 60.2337 72.247 60.777 72.247 61.429V68H70.0226V66.6513H69.9458C69.8052 66.924 69.6071 67.1797 69.3514 67.4183C69.1 67.6527 68.7825 67.8423 68.399 67.9872C68.0197 68.1278 67.5744 68.1982 67.063 68.1982ZM67.6639 66.4979C68.1284 66.4979 68.5311 66.4062 68.872 66.223C69.2129 66.0355 69.475 65.7884 69.6582 65.4815C69.8457 65.1747 69.9395 64.8402 69.9395 64.478V63.321C69.867 63.3807 69.7434 63.4361 69.5687 63.4872C69.3983 63.5384 69.2065 63.5831 68.9934 63.6214C68.7804 63.6598 68.5694 63.6939 68.3606 63.7237C68.1518 63.7536 67.9707 63.7791 67.8173 63.8004C67.4721 63.8473 67.1632 63.924 66.8904 64.0305C66.6177 64.1371 66.4025 64.2862 66.2449 64.478C66.0872 64.6655 66.0083 64.9084 66.0083 65.2067C66.0083 65.6328 66.1639 65.9545 66.475 66.1719C66.786 66.3892 67.1824 66.4979 67.6639 66.4979ZM74.5737 68V58.1818H76.8173V59.8182H76.9196C77.0985 59.2514 77.4054 58.8146 77.84 58.5078C78.2789 58.1967 78.7797 58.0412 79.3422 58.0412C79.47 58.0412 79.6127 58.0476 79.7704 58.0604C79.9324 58.0689 80.0666 58.0838 80.1731 58.1051V60.2337C80.0751 60.1996 79.9196 60.1697 79.7065 60.1442C79.4977 60.1143 79.2953 60.0994 79.0993 60.0994C78.6774 60.0994 78.2981 60.1911 77.9615 60.3743C77.6291 60.5533 77.367 60.8026 77.1752 61.1222C76.9835 61.4418 76.8876 61.8104 76.8876 62.228V68H74.5737Z" fill="#3A3A3A"/>
<rect id="Precio m&#195;&#161;ximo por mes" x="20" y="104" width="123" height="6" rx="3" fill="#8A8A8A"/>
<rect id="campo" x="20.5" y="118.5" width="319" height="47" rx="7.5" stroke="#BDBDBD"/>
<rect id="800 Bs" x="34" y="140" width="50" height="8" rx="4" fill="#3A3A3A"/>
<rect id="Tipo de espacio" x="20" y="190" width="84" height="6" rx="3" fill="#8A8A8A"/>
<rect id="opcion" x="20.5" y="204.5" width="102" height="39" rx="7.5" fill="#E8E8E8" stroke="#4A4A4A"/>
<rect id="Habitaci&#195;&#179;n" x="30" y="220" width="84" height="6" rx="3" fill="#3A3A3A"/>
<rect id="opcion_2" x="127.5" y="204.5" width="102" height="39" rx="7.5" stroke="#BDBDBD"/>
<rect id="Departamento" x="137" y="220" width="84" height="6" rx="3" fill="#3A3A3A"/>
<rect id="opcion_3" x="234.5" y="204.5" width="102" height="39" rx="7.5" stroke="#BDBDBD"/>
<rect id="Casa" x="244" y="220" width="84" height="6" rx="3" fill="#3A3A3A"/>
<rect id="Acepta mascotas" x="20" y="279" width="107" height="7" rx="3.5" fill="#3A3A3A"/>
<rect id="interruptor" x="292" y="270" width="48" height="26" rx="13" fill="#4A4A4A"/>
<circle id="perilla" cx="328" cy="283" r="10" fill="white"/>
<rect id="M&#195;&#161;ximo caminando a la UAGRM" x="20" y="330" width="167" height="6" rx="3" fill="#8A8A8A"/>
<rect id="15 min" x="20" y="351" width="46" height="8" rx="4" fill="#3A3A3A"/>
<rect id="relleno_4" x="20" y="380" width="320" height="4" rx="2" fill="#C9C9C9"/>
<rect id="relleno_5" x="20" y="380" width="160" height="4" rx="2" fill="#4A4A4A"/>
<circle id="control" cx="180" cy="382" r="8" fill="#4A4A4A"/>
<rect id="Accion principal" x="20" y="706" width="320" height="44" rx="8" fill="#4A4A4A"/>
<rect id="Etiqueta accion" x="55" y="725" width="250" height="7" rx="3.5" fill="white"/>
</g>
</svg>
